<?xml version="1.0" encoding="UTF-8"?>
<svg id="Layer_2" data-name="Layer 2" xmlns="http://www.w3.org/2000/svg" viewBox="0 0 104.08 35">
  <defs>
    <style>
      .cls-1, .cls-2, .cls-3 {
        stroke-width: 0px;
      }

      .cls-1, .cls-3 {
        fill: #009540;
      }

      .cls-2 {
        fill: #fff;
      }

      .cls-2, .cls-3 {
        fill-rule: evenodd;
      }
    </style>
  </defs>
  <g id="Layer_1-2" data-name="Layer 1">
    <g>
      <path class="cls-3" d="m14.42,24.5c1.59,0,2.89-1.29,2.89-2.89s-1.29-2.89-2.89-2.89-2.89,1.29-2.89,2.89,1.29,2.89,2.89,2.89"/>
      <path class="cls-3" d="m87.39,26.35c1.46,0,2.65-1.18,2.65-2.65s-1.18-2.65-2.65-2.65-2.65,1.18-2.65,2.65,1.18,2.65,2.65,2.65"/>
      <path class="cls-2" d="m9.23,33.94l.02.6.43-.43-.46-.18Zm-1.48-.08l.39-.79c.04-.07.05-.12.04-.15,0-.03-.03-.06-.08-.08l.02-.04.55.27-.02.04s-.09-.02-.12-.01c-.02,0-.05.05-.09.12l-.29.59c-.04.07-.05.12-.04.15,0,.03.03.06.08.08l-.02.04-.42-.21Zm-.09.56s-.08-.06-.09-.11c-.02-.05-.01-.1,0-.14.02-.05.06-.08.11-.09.05-.02.1-.01.14,0,.05.02.08.06.09.11.02.05.01.09,0,.14-.02.05-.06.08-.11.09s-.1.01-.14,0Zm-.62-.98l.14-.22c-.12.06-.22.09-.29.09-.07,0-.12-.01-.17-.04-.04-.02-.06-.05-.07-.09,0-.04,0-.08.03-.12.03-.04.06-.07.1-.08.04-.01.07,0,.1.01.04.02.06.05.07.09.01.04.02.06.02.07,0,0,.01.02.02.02.02.01.04.02.07.01.04,0,.08-.03.12-.06.06-.05.12-.12.17-.2l.14-.22.04-.06s.04-.06.04-.08c0-.02,0-.04-.01-.06-.01-.02-.03-.04-.07-.07l.02-.04.51.33-.02.04s-.08-.03-.11-.02c-.03.01-.07.06-.12.14l-.33.52c-.03.05-.05.09-.06.11,0,.02,0,.04,0,.06,0,.02.03.04.06.06l-.02.04-.39-.25Zm-2.64-1.34l.36-.43.04.03c-.07.14-.09.26-.07.39.02.12.08.22.17.3.08.06.17.1.27.11.1,0,.2,0,.29-.06.12-.06.22-.15.32-.26.09-.11.16-.23.21-.34.05-.11.06-.22.04-.32-.02-.1-.08-.19-.17-.26-.08-.07-.16-.11-.26-.13-.09-.02-.21-.02-.35,0l.09-.11c.13-.01.25,0,.35.02.1.03.2.09.31.17.13.11.23.24.29.37.06.14.07.28.05.43-.03.15-.09.28-.18.39-.1.12-.22.21-.38.26-.15.05-.3.07-.46.04-.15-.03-.29-.09-.41-.19-.09-.07-.16-.17-.23-.29-.04-.07-.06-.11-.08-.12-.02-.02-.04-.02-.07-.02-.03,0-.05.02-.09.05l-.04-.03Zm-.21-1.09s.06.04.11.04c.04,0,.1-.03.17-.08.07-.06.17-.14.28-.25.06-.06.11-.12.16-.18.03-.05.05-.09.05-.13,0-.04-.01-.07-.04-.1-.02-.03-.05-.04-.08-.04-.04,0-.08,0-.12.03-.07.04-.18.14-.35.3-.1.09-.16.16-.19.21-.03.05-.04.09-.03.12,0,.03.01.05.04.08Zm-.06.06c-.07-.07-.11-.15-.13-.25-.02-.09-.01-.19.02-.29.04-.1.09-.18.17-.26.11-.11.24-.17.37-.19.16-.02.3.03.42.16.12.12.16.25.14.4-.02.15-.09.27-.2.38-.12.11-.25.17-.4.19-.15.02-.28-.03-.39-.15Zm-.81-1.03l.12-.08c-.08,0-.15-.03-.21-.05-.05-.03-.1-.06-.13-.11-.04-.06-.06-.12-.06-.18,0-.06.03-.12.07-.17.03-.04.1-.09.2-.17l.35-.26c.07-.05.11-.09.12-.11,0-.03,0-.06-.02-.1l.03-.02.33.46-.03.02s-.06-.05-.1-.04c-.02,0-.07.03-.13.07l-.4.29c-.07.05-.12.09-.13.11-.02.02-.02.04-.02.06,0,.02,0,.04.02.06.04.06.12.08.23.07l.49-.35c.07-.05.11-.09.11-.11,0-.03,0-.06-.02-.09l.03-.02.33.46-.03.02s-.06-.05-.1-.05c-.02,0-.07.02-.14.08l-.51.37c-.07.05-.11.09-.12.11,0,.03,0,.06.02.1l-.03.02-.27-.37Zm-.76-1.6c-.07.11-.08.2-.04.27.01.03.03.04.06.05.04.01.09.01.15,0,.06-.02.15-.05.26-.12.12-.07.21-.13.25-.18.05-.05.08-.1.08-.15,0-.02,0-.05-.02-.08-.03-.06-.12-.09-.24-.09l-.51.29Zm-.82.09l1.11-.65c.07-.04.12-.07.13-.08.02-.02.03-.04.03-.06,0-.02,0-.05-.03-.09l.04-.02.32.36-.15.09c.09.01.15.03.2.06.04.03.08.06.11.11.07.12.07.25,0,.39-.06.11-.15.2-.28.28-.1.06-.21.1-.31.11-.1.01-.19,0-.27-.04-.08-.04-.14-.09-.18-.16-.03-.05-.04-.09-.04-.14,0-.05,0-.1.03-.17l-.29.17c-.07.04-.12.07-.13.09-.01.02-.02.04-.02.06,0,.02.01.06.04.1l-.04.03-.25-.43Zm.09-.96l.79-.39c.07-.04.11-.07.12-.09.01-.03,0-.06-.01-.11l.04-.02.27.55-.04.02s-.05-.07-.09-.08c-.02,0-.07,0-.14.04l-.59.29c-.07.04-.11.07-.12.09-.01.03,0,.06.01.11l-.04.02-.21-.42Zm-.41.39s-.03-.09,0-.14.05-.08.09-.11c.05-.02.09-.03.14,0,.05.02.08.05.11.09.02.05.03.09,0,.14-.02.05-.05.08-.09.11-.05.02-.09.03-.14,0-.05-.02-.08-.05-.11-.09Zm-.28-.94l.38-.15-.1-.25.11-.04.1.25.64-.26c.06-.02.1-.04.11-.06.02-.01.03-.03.03-.05,0-.02,0-.03,0-.05-.02-.05-.07-.08-.16-.09v-.04c.18,0,.29.07.34.21.03.07.03.13.01.19-.02.06-.05.11-.09.14-.02.02-.09.05-.2.09l-.56.23.06.14-.04.02c-.1-.07-.2-.12-.3-.15-.1-.04-.2-.06-.31-.07v-.04Zm.07-.97l.84-.28c.08-.03.12-.05.14-.08.01-.02.02-.06,0-.12h.04s.19.56.19.56h-.04s-.04-.07-.08-.08c-.02,0-.07,0-.15.02l-.62.21c-.08.03-.12.05-.14.08-.01.02-.02.06,0,.12h-.04s-.15-.43-.15-.43Zm-.46.33s-.01-.1,0-.14c.02-.05.06-.08.11-.09.05-.02.1-.01.14,0,.05.02.08.06.09.11.02.05.01.1,0,.14-.02.05-.06.08-.11.09-.05.02-.1.01-.14,0-.05-.02-.08-.06-.09-.11Zm.27-1.15s.04.07.07.09c.04.02.1.02.19,0,.09-.02.21-.04.37-.09.08-.02.16-.05.23-.08.05-.02.09-.05.11-.09.02-.04.03-.07.02-.11,0-.03-.03-.06-.05-.08-.03-.02-.08-.03-.13-.03-.08,0-.23.04-.45.1-.13.04-.22.07-.26.1-.04.03-.07.06-.09.09-.01.02-.01.05,0,.08Zm-.08.03c-.03-.09-.03-.19,0-.28.03-.09.08-.17.16-.24.08-.07.17-.11.27-.14.15-.04.29-.04.42,0,.15.06.25.17.29.34.04.16.02.3-.07.42-.09.12-.21.2-.36.24-.15.04-.3.04-.44-.02-.14-.06-.23-.16-.27-.32Zm-.24-1.23l.14-.03c-.07-.04-.12-.09-.16-.14-.04-.05-.06-.1-.07-.16-.01-.07,0-.13.03-.19.03-.05.07-.09.13-.12.04-.02.13-.04.25-.07l.43-.08c.08-.02.14-.03.15-.05.02-.02.02-.05.02-.1h.04s.1.55.1.55h-.04s-.04-.06-.07-.07c-.02,0-.07,0-.15,0l-.49.09c-.09.02-.15.03-.17.04-.02.01-.04.03-.05.05,0,.02-.01.04,0,.06.01.07.07.12.18.16l.59-.11c.08-.02.13-.03.15-.05.02-.02.03-.05.03-.09h.04s.1.55.1.55h-.04s-.03-.07-.06-.08c-.02,0-.07,0-.16,0l-.62.12c-.08.02-.13.03-.15.05-.02.02-.03.05-.02.1h-.04s-.08-.44-.08-.44Zm-.17-1.45l.88-.07c.08,0,.13-.02.15-.04.02-.02.03-.06.03-.11h.04s.05.6.05.6h-.04s-.02-.08-.05-.11c-.02-.01-.07-.02-.15-.01l-.65.05c-.08,0-.13.02-.15.04-.02.02-.03.06-.03.11h-.04s-.04-.47-.04-.47ZM0,22.79c0-.05.01-.1.04-.14.03-.04.08-.06.13-.06.05,0,.1.01.13.04.04.03.06.08.06.13,0,.05-.01.1-.04.13-.03.04-.07.06-.13.06-.05,0-.1-.01-.13-.04-.04-.03-.06-.07-.06-.13Zm.49-.96h.14c-.06-.06-.11-.11-.14-.17-.03-.05-.05-.11-.05-.17,0-.07.02-.13.05-.18.04-.05.09-.08.15-.1.05-.01.13-.02.26-.03h.44c.09-.02.14-.03.16-.04.02-.02.03-.05.04-.1h.04s.02.56.02.56h-.04s-.03-.07-.06-.09c-.02-.01-.07-.02-.15-.01l-.5.02c-.09,0-.15,0-.17.02-.02,0-.04.02-.05.04-.01.02-.02.04-.02.06,0,.07.05.13.15.19l.6-.02c.08,0,.14-.01.16-.03.02-.02.03-.05.04-.09h.04s.02.56.02.56h-.04s-.02-.08-.05-.1c-.02-.01-.07-.02-.16-.01l-.63.02c-.09,0-.14.01-.16.03-.02.02-.03.05-.04.1h-.04s-.02-.45-.02-.45Zm1.34-1.37c0,.08,0,.14,0,.16.02.05.05.07.09.08.04,0,.08-.02.11-.06.04-.04.06-.13.07-.26,0-.11,0-.2-.02-.26-.02-.07-.06-.1-.12-.1-.02,0-.04,0-.05.01-.03.02-.04.05-.06.09-.01.04-.03.16-.04.35Zm-1.23-.16s.02.09.06.12c.04.04.14.06.28.07.12,0,.2,0,.25-.03.05-.03.07-.06.07-.11,0-.05-.02-.09-.06-.12-.04-.04-.12-.06-.25-.07-.14-.01-.24,0-.29.03-.04.02-.06.06-.07.1Zm-.01-.21l.03-.37h.13s-.02.22-.02.22c.04-.04.08-.06.11-.07.04-.02.09-.02.14-.02.08,0,.15.03.2.08.05.05.1.11.12.19.03.08.04.15.03.21,0,0,0,.05-.02.14,0,.04,0,.07.03.09.02.03.05.04.08.04.03,0,.05,0,.07-.03.02-.02.03-.06.04-.1v-.21c.03-.17.05-.28.09-.34.06-.09.14-.13.25-.12.07,0,.13.03.18.08.05.05.09.1.11.17.03.11.04.23.03.36,0,.1-.02.19-.05.27-.03.08-.06.14-.09.17-.04.03-.07.05-.11.05-.04,0-.07-.02-.09-.05s-.05-.08-.06-.16c-.06.1-.13.15-.23.14-.06,0-.11-.03-.16-.08-.05-.05-.09-.12-.12-.21-.05.1-.1.18-.17.22-.07.04-.14.06-.23.05-.11,0-.2-.06-.27-.16-.07-.09-.1-.21-.09-.35,0-.07.03-.15.06-.22Zm.58-1.78c0,.07.02.12.05.15.03.05.08.08.13.09.07.02.15.02.23,0,.08-.02.15-.06.21-.1.06-.05.09-.1.11-.16,0-.03.01-.06,0-.1,0-.04-.01-.08-.02-.13-.24.13-.48.22-.71.26Zm-.12-.33c0-.09-.02-.15-.05-.19-.03-.04-.06-.06-.11-.08-.09-.02-.16-.02-.24,0-.05.02-.08.05-.09.09-.01.04,0,.07.02.11.02.03.06.06.1.07.04.01.08.02.13.01.05,0,.13,0,.24-.03Zm.2-.44l.13-.48h.04c0,.07,0,.12.01.15.02.04.06.09.14.17.08.07.15.17.24.29.09-.06.16-.11.2-.15.03-.03.05-.06.06-.09.02-.06,0-.12-.07-.19l.04-.04c.11.1.18.19.21.27.02.07.03.13,0,.2-.02.06-.05.11-.09.16-.04.05-.11.1-.2.16.04.11.06.22.07.31,0,.09,0,.18-.03.28-.04.15-.11.25-.22.31-.1.06-.21.08-.31.05-.12-.03-.2-.1-.27-.21-.06-.11-.1-.25-.12-.42-.06,0-.11,0-.16,0-.05,0-.1-.01-.14-.02-.12-.03-.21-.11-.27-.22-.06-.11-.07-.23-.03-.37.03-.11.08-.19.15-.24.07-.05.14-.06.22-.04.09.02.15.08.2.16.04.08.07.2.08.35.18-.04.38-.13.6-.24-.1-.15-.19-.23-.28-.26-.03,0-.06,0-.09.01-.03.02-.05.04-.07.09h-.04Zm.27-2.19l.63.31.03-.06c.05-.1.08-.18.08-.24,0-.06,0-.11-.04-.16-.03-.05-.09-.1-.16-.13-.11-.05-.2-.07-.28-.04-.08.03-.15.1-.2.21l-.06.11Zm.71.35l.41.2c.08.04.13.06.16.06.03,0,.05,0,.07-.03.02-.02.05-.06.09-.13l.04.02-.37.74-.04-.02c.03-.07.05-.12.05-.15,0-.03,0-.06-.02-.07-.02-.02-.06-.05-.14-.09l-.95-.47c-.08-.04-.13-.06-.16-.06-.03,0-.05,0-.07.03-.02.02-.05.06-.09.13l-.04-.02.33-.68c.09-.18.16-.3.23-.37.06-.07.14-.11.23-.13.09-.02.18,0,.27.04.11.05.18.14.21.25.02.07.02.16,0,.26l.67-.11c.09-.01.14-.03.17-.04.04-.02.07-.05.09-.08l.04.02-.23.46-.89.14-.05.1Zm1.02-1.65c-.11-.07-.19-.11-.23-.13-.05-.01-.09-.02-.13,0-.02,0-.04.02-.05.04-.02.03-.02.07,0,.12.03.08.1.15.21.22l.03.02.18-.27Zm.23-.2l-.34.51c.13.07.25.11.36.09.09-.01.15-.05.19-.11.03-.04.04-.08.04-.13,0-.05-.02-.11-.05-.18l.04-.02c.07.12.11.22.11.31,0,.09-.02.17-.07.26-.09.14-.21.21-.37.21-.12,0-.25-.04-.38-.12-.16-.1-.25-.22-.29-.37-.04-.14-.02-.27.05-.39.06-.09.15-.15.28-.17.12-.02.26.02.42.11Zm.1-.79l.61.48c.06.05.1.07.13.07.04,0,.08-.03.12-.08l.03.03-.41.52-.03-.03s.05-.07.05-.1c0-.02,0-.04,0-.06-.01-.02-.04-.05-.09-.08l-.61-.48-.1.12-.09-.07.1-.12-.06-.05-.04-.03c-.09-.07-.14-.16-.15-.28,0-.11.03-.23.12-.34.06-.08.12-.12.18-.14.06-.01.1,0,.14.02.03.02.04.05.05.09,0,.04-.01.08-.04.12-.03.03-.05.05-.09.06-.03,0-.06,0-.08-.02,0,0-.02-.02-.03-.03,0-.01-.02-.02-.03-.03-.01-.01-.03-.01-.04-.01-.02,0-.03.01-.04.03-.01.02-.02.04-.01.06,0,.02.02.05.06.08l.17.13.11.09.1-.13.09.07-.1.13Zm.43-.71l.2.16c-.04-.13-.06-.23-.05-.3,0-.07.03-.12.06-.16.03-.03.06-.05.1-.06.04,0,.08.01.11.04.04.03.06.07.07.11,0,.04,0,.07-.03.1-.03.03-.06.05-.1.06-.04,0-.06.01-.07.01,0,0-.02,0-.02.02-.01.02-.02.04-.02.07,0,.04.01.09.04.13.04.07.1.13.17.19l.2.16.05.04s.06.05.07.05c.02,0,.04,0,.06,0,.02,0,.05-.03.08-.06l.03.03-.39.47-.03-.03s.04-.07.03-.1c0-.03-.05-.07-.12-.14l-.48-.4s-.08-.07-.1-.07c-.02,0-.04-.01-.06,0-.02,0-.04.02-.07.05l-.03-.03.29-.35Zm.83-.84l.61.64c.06.06.1.09.13.09.03,0,.06-.01.11-.05l.03.03-.44.42-.03-.03s.05-.07.05-.11c0-.02-.03-.07-.08-.12l-.45-.47c-.06-.06-.1-.09-.13-.09-.03,0-.06.01-.1.05l-.03-.03.34-.33Zm-.5-.27s.08-.05.13-.05.09.02.13.06c.04.04.05.08.05.13,0,.05-.02.09-.06.13-.04.04-.08.05-.13.05-.05,0-.09-.02-.13-.06-.04-.04-.05-.08-.05-.13,0-.05.02-.09.06-.13Zm1.89.74c-.06.05-.1.09-.11.12-.02.05-.01.09.02.12.03.03.07.04.13.04.06,0,.13-.05.23-.14.08-.07.14-.14.17-.21.03-.06.02-.12-.01-.16-.01-.01-.03-.02-.05-.03-.03,0-.07,0-.11.03-.04.02-.13.1-.27.22Zm-.77-.97s-.05.07-.04.13c0,.06.06.14.16.25.08.09.14.14.2.15.05.01.1,0,.13-.02.04-.03.05-.07.05-.13,0-.05-.05-.13-.13-.22-.09-.11-.17-.17-.23-.18-.04-.01-.08,0-.12.03Zm.13-.16l.28-.25.09.1-.16.14c.06,0,.1.01.13.03.04.02.08.05.11.08.05.06.08.13.09.2,0,.07,0,.15-.04.22-.03.08-.07.13-.12.17,0,0-.04.03-.11.09-.03.02-.04.05-.04.09,0,.03,0,.06.03.09.02.02.04.03.07.03.03,0,.06-.02.1-.05l.15-.14c.13-.11.22-.17.3-.19.1-.02.19,0,.26.09.04.05.07.11.08.18,0,.07,0,.14-.04.2-.05.1-.13.19-.23.28-.08.07-.15.12-.23.16-.07.04-.14.06-.19.06-.05,0-.09-.02-.11-.05-.02-.03-.04-.06-.03-.1,0-.04.02-.09.07-.16-.11.03-.2.01-.26-.06-.04-.04-.06-.1-.06-.16,0-.07.02-.15.06-.23-.11.04-.2.05-.28.04-.08-.02-.14-.06-.2-.12-.07-.08-.1-.18-.09-.3.01-.12.07-.22.18-.32.06-.05.12-.09.2-.12Zm1.27-.42c-.08-.1-.13-.17-.17-.2-.04-.03-.08-.05-.12-.05-.02,0-.04,0-.07.02-.03.02-.05.06-.05.11,0,.09.04.18.11.28l.02.03.26-.19Zm.28-.11l-.5.36c.09.12.19.19.3.21.08.02.16,0,.22-.04.04-.03.07-.06.08-.11.02-.04.02-.11.02-.19h.05c.02.13.02.24,0,.33-.03.08-.08.16-.16.21-.13.1-.27.12-.42.07-.12-.04-.22-.13-.31-.25-.11-.15-.16-.3-.14-.45.02-.15.08-.26.19-.34.09-.07.2-.09.32-.06.12.03.24.11.35.25Zm.32-.78l.13.22c0-.14.02-.24.05-.3.03-.06.07-.1.11-.13.04-.02.08-.03.11-.02.04.01.07.04.09.08.03.05.04.09.03.13,0,.04-.03.07-.06.08-.04.02-.07.03-.11.02-.04,0-.06-.01-.07-.01,0,0-.02,0-.03,0-.02.01-.03.03-.04.06-.01.04-.02.09,0,.14.02.08.05.16.1.24l.13.22.03.06s.04.06.05.07c.02.01.04.02.06.02.02,0,.05-.01.09-.03l.02.04-.53.3-.02-.04s.06-.06.07-.08c0-.03-.02-.08-.07-.17l-.31-.54c-.03-.06-.06-.09-.07-.1-.02-.02-.04-.02-.05-.03-.02,0-.05,0-.08.02l-.02-.04.4-.23Zm1.56.17l-.15-.34c-.06.09-.11.18-.12.25-.01.05,0,.1.01.14.01.03.04.06.08.07.03.01.06.01.09,0,.04-.02.07-.06.1-.12Zm.04.08c-.08.17-.16.27-.26.31-.06.03-.12.03-.17,0-.06-.02-.1-.06-.12-.12-.03-.08-.03-.16,0-.26.04-.09.15-.24.33-.44l-.05-.1c-.03-.08-.06-.12-.08-.14-.02-.02-.04-.03-.07-.03-.03,0-.06,0-.09.01-.05.02-.08.05-.1.08-.01.02-.02.04,0,.06,0,.02.03.03.06.04.04.02.07.04.08.07.02.04.02.07,0,.11-.02.04-.04.06-.09.08-.05.02-.09.02-.13,0-.04-.01-.07-.04-.09-.08-.02-.05-.02-.11,0-.18.02-.07.06-.13.12-.19.06-.06.13-.11.21-.14.1-.04.18-.06.26-.04.07.02.13.04.17.08.02.03.06.09.11.2l.18.4s.04.07.04.09c0,.01.02.02.03.02,0,0,.02,0,.03,0,.02,0,.03-.03.04-.07h.04c-.01.08-.03.14-.06.18-.03.04-.07.07-.12.1-.06.03-.11.03-.16.02-.05-.01-.08-.05-.12-.1Zm.49-1.67l.15.38.25-.1.04.11-.25.1.25.64c.02.06.04.1.05.11.01.02.03.03.05.03.02,0,.03,0,.05,0,.05-.02.08-.07.09-.16h.04c0,.18-.07.29-.21.34-.07.03-.13.03-.19.01-.06-.02-.11-.05-.14-.09-.02-.02-.05-.09-.09-.2l-.22-.56-.14.05-.02-.04c.07-.1.12-.2.16-.3.04-.1.06-.2.08-.31h.04Zm1.02.11l.25.85c.02.08.05.12.07.14.02.02.06.02.12,0v.04s-.57.17-.57.17v-.04s.07-.04.08-.07c.01-.02,0-.07-.02-.15l-.18-.63c-.02-.08-.05-.12-.07-.14-.02-.02-.06-.02-.12,0v-.04s.44-.13.44-.13Zm-.31-.47s.1,0,.14.02c.04.02.07.06.09.11.01.05,0,.1-.02.14-.02.04-.06.07-.11.09-.05.01-.1,0-.14-.02-.04-.02-.07-.06-.09-.11-.01-.05,0-.1.02-.14.02-.04.06-.07.11-.09Zm1.14.32s-.07.03-.09.07c-.02.04-.03.1-.02.19.01.09.03.21.07.37.02.08.04.16.07.23.02.05.05.09.08.11s.07.03.1.02c.04,0,.06-.02.08-.05.02-.03.04-.07.04-.12,0-.08-.03-.23-.08-.45-.03-.13-.06-.22-.08-.27-.03-.05-.06-.08-.09-.09-.02-.01-.05-.01-.08,0Zm-.02-.08c.09-.02.19-.02.28.02.09.03.17.09.23.17.06.08.1.17.13.28.03.15.02.29-.03.41-.07.15-.18.24-.35.28-.16.04-.3,0-.42-.09-.11-.1-.19-.22-.22-.37-.03-.16-.02-.3.05-.44.06-.14.18-.22.33-.26Zm1.24-.19l.02.14c.05-.07.1-.12.15-.15.05-.03.1-.06.16-.06.07,0,.13,0,.19.04.05.03.09.08.11.14.02.04.04.13.05.26l.06.43c.01.09.03.14.04.16.02.02.05.03.1.03v.04s-.56.07-.56.07v-.04s.06-.03.08-.06c0-.02,0-.07,0-.15l-.07-.49c-.01-.09-.02-.15-.03-.17-.01-.02-.02-.04-.04-.05-.02-.01-.04-.01-.06-.01-.07,0-.12.06-.17.17l.08.6c.01.08.03.13.04.15.02.02.05.03.09.03v.04s-.56.07-.56.07v-.04s.07-.03.09-.06c.01-.02.01-.07,0-.16l-.08-.63c-.01-.08-.03-.14-.04-.16-.02-.02-.05-.03-.1-.03v-.04s.45-.06.45-.06Zm1.83,3.23c-5.84,0-10.58,4.74-10.58,10.58s4.74,10.58,10.58,10.58,10.58-4.74,10.58-10.58-4.74-10.58-10.58-10.58Zm0,4.67c3.26,0,5.91,2.65,5.91,5.91s-2.65,5.91-5.91,5.91-5.91-2.65-5.91-5.91,2.65-5.91,5.91-5.91Zm17.58-4.67h-4.68v12.4c.46,8.13,8.66,11.41,14.86,5.96,1.48,1.58,3.33,2.71,6.1,2.71v-4.56c-2.7-.26-3.94-2.2-3.93-4.67l.05-11.83h-4.68v12.94c0,4.31-7.79,4.26-7.79.05.02-4.33.04-8.67.06-13ZM50.42,0h4.48v32.09h-4.48V0Zm16.42,11.19h-5.58l-5.29,7.46c-1.15,1.58-1.2,3.17,0,4.75l6.05,8.8h5.55l-7.75-11.1s-.02-.05,0-.08l7.03-9.83Zm1.93,21v-13.47c.21-5.1,4.2-7.74,9.08-7.52v4.61c-3.71-.39-4.49,1.71-4.54,4.82v11.56h-4.54Zm29.15-9.18v9.18h-4.62v-1.78c-1.68,1.12-3.7,1.78-5.87,1.78-5.84,0-10.58-4.74-10.58-10.58s4.74-10.58,10.58-10.58,10.58,4.74,10.58,10.58c0,.48-.03.94-.09,1.4Zm-10.49-7.31c3.26,0,5.91,2.65,5.91,5.91s-2.65,5.91-5.91,5.91-5.91-2.65-5.91-5.91,2.65-5.91,5.91-5.91ZM9.23,33.84l.53.21.12-.12s.07-.08.08-.11c.02-.04.01-.08-.01-.11-.02-.02-.06-.05-.14-.08l.02-.04.5.2-.02.04c-.06-.01-.11,0-.16.02-.05.02-.12.08-.22.18l-1.01.99h-.02s-.06-1.46-.06-1.46c0-.14-.02-.23-.04-.27-.02-.03-.05-.06-.09-.08l.02-.04.73.28-.02.04h-.03c-.06-.03-.1-.04-.13-.03-.02,0-.04.02-.04.04,0,.01,0,.03,0,.04,0,0,0,.04,0,.1v.22Z"/>
      <path class="cls-1" d="m102.12,16.26l.55,1.15s.04.04.07.04l1.26-.17s.06.01.07.04c.01.03,0,.06-.01.08l-.92.88s-.03.05-.01.08l.55,1.15s0,.06-.01.08c-.02.02-.05.02-.08.01l-1.12-.61s-.06-.01-.08.01l-.92.88s-.05.02-.08.01c-.03-.01-.04-.04-.03-.07l.23-1.25s0-.06-.03-.07l-1.12-.61s-.04-.04-.03-.07c0-.03.03-.05.06-.06l1.26-.17s.05-.03.06-.06l.23-1.25s.03-.05.06-.06c.03,0,.06.01.07.04"/>
      <path class="cls-1" d="m102.53,22.46l.44.91s.03.03.06.03l1-.13s.05,0,.06.03c.01.02,0,.05-.01.06l-.73.7s-.02.04-.01.06l.44.91s0,.05-.01.06c-.02.02-.04.02-.06,0l-.89-.48s-.05,0-.06,0l-.73.69s-.04.02-.06,0c-.02-.01-.03-.03-.03-.06l.18-.99s0-.05-.03-.06l-.89-.48s-.03-.03-.03-.06c0-.02.02-.04.05-.04l1-.13s.04-.02.05-.04l.18-.99s.02-.04.05-.04.05,0,.06.03"/>
      <path class="cls-1" d="m100.79,9.62l-.4,1.8s0,.08.05.11l1.59.93s.06.06.05.11c0,.04-.04.07-.09.08l-1.83.18s-.08.03-.09.08l-.4,1.8s-.04.07-.09.08c-.04,0-.08-.02-.1-.06l-.73-1.69s-.06-.06-.1-.06l-1.83.18s-.08-.02-.1-.06c-.02-.04,0-.08.03-.11l1.38-1.22s.04-.07.02-.11l-.73-1.69s0-.08.03-.11c.03-.03.08-.03.11-.01l1.59.93s.08.02.11-.01l1.38-1.22s.08-.03.11-.01c.04.02.06.06.05.11"/>
      <path class="cls-1" d="m92.29,6.57l.55,1.15s.04.04.07.04l1.26-.17s.06.01.07.04c.01.03,0,.06-.01.08l-.92.88s-.03.05-.01.08l.55,1.15s0,.06-.01.08c-.02.02-.05.02-.08.01l-1.12-.61s-.06-.01-.08.01l-.92.88s-.05.02-.08.01c-.03-.01-.04-.04-.03-.07l.23-1.26s0-.06-.03-.07l-1.12-.61s-.04-.04-.03-.07c0-.03.03-.05.06-.06l1.26-.17s.05-.03.06-.06l.23-1.26s.03-.05.06-.06c.03,0,.06.01.07.04"/>
      <path class="cls-1" d="m84.93,7.51l.45.94s.03.03.06.03l1.03-.14s.05,0,.06.03,0,.05-.01.06l-.76.72s-.02.04-.01.06l.45.94s0,.05-.01.06c-.02.02-.04.02-.06,0l-.92-.5s-.05,0-.06,0l-.76.72s-.04.02-.07,0c-.02-.01-.03-.03-.03-.06l.19-1.03s0-.05-.03-.06l-.92-.5s-.03-.03-.03-.06c0-.02.02-.04.05-.05l1.03-.14s.04-.02.05-.05l.19-1.03s.02-.04.05-.05c.02,0,.05,0,.06.03"/>
    </g>
  </g>
</svg>